<?xml version="1.0" encoding="UTF-8"?>
<svg id="Layer_1" xmlns="http://www.w3.org/2000/svg" xmlns:xlink="http://www.w3.org/1999/xlink" version="1.1" viewBox="0 0 1211.4 270.46">
  <!-- Generator: Adobe Illustrator 29.8.1, SVG Export Plug-In . SVG Version: 2.1.1 Build 2)  -->
  <defs>
    <style>
      .st0 {
        fill: url(#linear-gradient);
      }

      .st1 {
        fill: #fff;
      }

      .st2 {
        fill: #00d131;
      }

      .st3 {
        stroke: #000;
        stroke-miterlimit: 10;
      }
    </style>
    <linearGradient id="linear-gradient" x1="911.15" y1="88.17" x2="1073.35" y2="181.82" gradientUnits="userSpaceOnUse">
      <stop offset="0" stop-color="#cab356"/>
      <stop offset=".22" stop-color="#fff59f"/>
      <stop offset=".42" stop-color="#e9c243"/>
      <stop offset=".61" stop-color="#fff7ba"/>
      <stop offset=".81" stop-color="#fce493"/>
      <stop offset="1" stop-color="#ffe48f"/>
    </linearGradient>
  </defs>
  <polygon points="898.52 0 73.14 0 -1.38 270.46 826.76 270.46 898.52 0"/>
  <path class="st2" d="M89.59,23.6L30.29,246.86h783.05l59.71-223.27H89.59ZM811.01,223.24l40.52-182.57-717.23-6.99h727.01l-50.3,189.55Z"/>
  <polygon points="1211.4 0 880.19 0 805.67 270.46 1139.65 270.46 1211.4 0"/>
  <polygon points="896.64 23.6 837.34 246.86 1126.23 246.86 1185.94 23.6 896.64 23.6"/>
  <polygon class="st2" points="1123.9 223.24 1164.42 40.67 941.35 33.69 1174.2 33.69 1123.9 223.24"/>
  <path class="st3" d="M588.1,114.1c-19.25,0-40.05,13.66-40.05,37.57s21.61,23.29,33.63,23.29,25.52-7.92,27.07-14.13c1.55-6.21-3.42-8.38-6.21-8.38s-8.54-.93-10.87,2.02c-2.33,2.95-2.02,10.87-11.49,10.87s-15.99-2.06-10.71-17.72h37.41c4.81,0,7.76-6.19,8.38-10.54.62-4.35.03-22.98-27.17-22.98ZM591.52,141.27h-21.42s1.86-15.68,12.89-17c11.02-1.32,13.35,4.04,13.04,8.5-.31,4.46-4.5,8.5-4.5,8.5ZM682.32,108.52h41.76c-2.64,4.81-12.89,10.09-24.37,23.44-11.49,13.35-16.61,42.23-16.61,42.23h30.43s-2.17-24.06,4.04-34.15c6.21-10.09,35.4-41.92,35.4-41.92v-8.23h-66.6l-4.04,18.63ZM525.46,89.81h-35.86l-23.05,83.6h34.23c11.18,0,32.83-2.17,37.49-18.01,4.66-15.83.47-24.14-7.68-27.17,11.88-6.52,13.04-7.45,16.07-20.49,3.03-13.04-7.92-17.93-21.19-17.93ZM518.24,148.96c-2.1,8.62-8.38,14.67-14.2,14.67h-14.44l7.68-27.25s6.05-1.28,12.81-1.16c6.75.12,10.25,5.12,8.15,13.74ZM525.69,114.1c-2.56,9.43-9.08,10.17-15.83,10.17h-10.01l7.01-23.52s2.54.31,10.92-.16c8.38-.47,10.48,4.08,7.92,13.51ZM370.85,114.1c-26.08,0-33.82,22.1-35.63,33.01-2.56,15.47,3.37,27.84,29.11,27.84s29.11-23.44,26.55-23.9c-2.56-.47-15.6,1.28-17,5.94-1.4,4.66-7.1,8.62-12.46,7.45-5.36-1.16-6.17-5.71-4.08-17.27,2.1-11.56,9.55-21.97,14.9-23.1s6.99,1.6,7.22,5.09c.23,3.49-.23,12.11,7.45,12.11s9.55-6.05,9.55-12.34.47-14.83-25.62-14.83ZM760.16,89.89l-4.04,18.63h41.76c-2.64,4.81-12.89,10.09-24.37,23.44-11.49,13.35-16.61,42.23-16.61,42.23h30.43s-2.17-24.06,4.04-34.15c6.21-10.09,35.4-41.92,35.4-41.92v-8.23h-66.6ZM647.48,152.68c1.4-5.36,6.99-28.61,6.99-28.61h15.37v-9.97h-12.57l8.38-16.17h-10.01c-13.74,13.48-34.23,24.94-34.23,24.94l12.58.23s-3.73,12.34-8.38,29.57c-4.66,17.23,5.59,23.29,16.07,23.29s16.07-7.22,16.07-7.22l.23-3.73c-11.41.47-11.88-6.99-10.48-12.34ZM439.3,114.1c-19.25,0-40.05,13.66-40.05,37.57s21.61,23.29,33.63,23.29,25.52-7.92,27.07-14.13c1.55-6.21-3.42-8.38-6.21-8.38s-8.54-.93-10.87,2.02c-2.33,2.95-2.02,10.87-11.49,10.87s-15.99-2.06-10.71-17.72h37.41c4.81,0,7.76-6.19,8.38-10.54.62-4.35-2.01-22.98-27.17-22.98ZM442.72,141.27h-21.42s1.86-15.68,12.89-17c11.02-1.32,13.35,4.04,13.04,8.5-.31,4.46-4.5,8.5-4.5,8.5ZM313.8,119.38c-11.24.92-19.23,3.76-23.42,5.59l-1.55,5.67c14.4-4.78,16.55,2.63,15.65,6.31-.93,3.83-11.18,38.01-11.18,38.01h24.92s5.36-26.7,7.45-36.48c2.1-9.78,5.12-20.49-11.88-19.1ZM236.02,119.38l-14.44,55.58h23.05v-6.91l13.27-48.67h-21.89ZM290.37,124.97l1.52-5.59h-21.89l-14.44,55.58h23.05v-6.91l10.2-37.41M223.44,139.88c3.03-4.19,2.9-11.88,0-18.16-1.86-4.04-8.88-4.06-16.18-3.14-7.45.93-13.39,4.77-13.39,4.77v-6l-19.79,1.11-13.74,56.51h21.89s2.1-11.1,7.92-30.43c5.82-19.33,16.77-13.74,16.77-13.74,0,0-.93,15.6,3.03,15.24,3.96-.36,10.48-1.97,13.51-6.16ZM136.12,89.81h-32.6l-17.46,85.15h22.59l6.29-28.57s1.72,2.1,18.63-.47c18.4-2.79,29.34-13.62,32.6-29.92,3.26-16.3-6.05-26.2-30.04-26.2ZM138.33,128.35c-9.08,9.78-20.96,7.27-20.96,7.27,0,0,4.89-24.27,6.99-34.4,7.03-2.42,13.04-2.35,17.35,0,4.06,2.21,5.71,17.35-3.38,27.13ZM254.28,110.18c6.88-1.36,11.46-7.55,10.22-13.84-1.24-6.29-7.82-10.28-14.71-8.92-6.89,1.36-11.46,7.55-10.22,13.84,1.24,6.29,7.82,10.28,14.71,8.92Z"/>
  <g>
    <path class="st1" d="M277.67,168.88v6.08h1.7v-6.91l10.11-37.06c-.53.15-1.04.29-1.6.47l-10.2,37.41Z"/>
    <polygon class="st1" points="236.54 120.21 256.95 120.21 243.68 168.88 243.68 174.96 245.37 174.96 245.37 168.05 258.65 119.38 236.76 119.38 236.54 120.21"/>
    <path class="st1" d="M314.54,119.38c-11.24.92-19.23,3.76-23.42,5.59l1.52-5.59h-21.89l-.21.83h20.41l-1.52,5.59c4.19-1.83,12.18-4.66,23.42-5.59,17-1.4,13.97,9.31,11.88,19.1-1.89,8.8-6.4,31.23-7.29,35.66h1.53s5.36-26.7,7.45-36.48c2.1-9.78,5.12-20.49-11.88-19.1Z"/>
    <path class="st1" d="M250.53,87.42c-1.45.29-2.77.83-3.99,1.5.73-.28,1.49-.52,2.29-.67,6.88-1.36,13.47,2.64,14.71,8.92.98,4.96-1.7,9.82-6.24,12.34,5.57-2.14,9.03-7.61,7.93-13.16-1.24-6.29-7.82-10.28-14.71-8.92Z"/>
    <path class="st1" d="M421.16,148.44h-1.44c-5.28,15.66,1.24,17.72,10.71,17.72,2.53,0,4.35-.58,5.72-1.46-1.11.39-2.42.64-4.03.64-9.29,0-15.72-2.02-10.97-16.89Z"/>
    <path class="st1" d="M391.61,151.05c-1.94-.35-9.91.57-14.26,3.07,4.47-1.87,10.85-2.56,12.56-2.24,1.92.35.5,13.56-11.11,20.18,13.13-6.26,14.81-20.65,12.81-21.01Z"/>
    <path class="st1" d="M356.39,148c-2.1,11.57-1.28,16.11,4.08,17.27,2.55.55,5.16-.07,7.37-1.36-1.79.69-3.75.96-5.67.54-5.36-1.16-6.17-5.71-4.07-17.27,1.8-9.92,7.53-18.97,12.51-22.06-5.29,1.83-12.2,11.81-14.21,22.89Z"/>
    <path class="st1" d="M136.86,89.81h-32.6l-.17.83h31.07c23.99,0,33.3,9.9,30.04,26.2-2.36,11.79-8.79,20.66-19.1,25.75,11.32-4.93,18.31-14.15,20.8-26.58,3.26-16.3-6.05-26.2-30.04-26.2Z"/>
    <path class="st1" d="M118.11,135.62s4.79-23.77,6.92-34.07c-.54.16-1.08.31-1.63.5-2.1,10.13-6.99,34.4-6.99,34.4,0,0,7.29,1.51,14.81-2.52-6.88,2.99-13.12,1.69-13.12,1.69Z"/>
    <path class="st1" d="M107.87,174.96h1.51l5.99-27.22c-1.16-.23-1.4-.52-1.4-.52l-6.11,27.74Z"/>
    <path class="st1" d="M189.19,145.36c-4.92,16.32-7.17,26.75-7.75,29.6h1.53s2.1-11.1,7.92-30.43c2.28-7.58,5.35-11.3,8.24-13.06-3.33,1.24-7.2,4.79-9.94,13.88Z"/>
    <path class="st1" d="M208,118.57c-4.95.62-9.18,2.5-11.5,3.71,2.44-1.11,5.9-2.4,9.8-2.88,7.31-.91,14.32-.9,16.18,3.14,2.9,6.29,3.03,13.97,0,18.16-1.03,1.42-2.47,2.53-4.07,3.41,2.26-.96,4.38-2.32,5.77-4.23,3.03-4.19,2.9-11.88,0-18.16-1.86-4.04-8.88-4.06-16.18-3.14Z"/>
    <path class="st1" d="M192.91,124.17s.65-.4,1.7-.96v-5.87l-19.79,1.11-.18.74,18.28-1.03v6Z"/>
    <path class="st1" d="M371.59,114.1c-6.83,0-12.38,1.54-16.92,3.98,4.21-1.94,9.21-3.15,15.22-3.15,26.08,0,25.62,8.54,25.62,14.83,0,4.44-.98,8.72-4.24,10.88,4.63-1.66,5.93-6.57,5.93-11.71,0-6.29.47-14.83-25.62-14.83Z"/>
    <path class="st1" d="M648.22,152.68c1.24-4.77,5.8-23.69,6.79-27.79h-1.5s-5.59,23.26-6.99,28.61c-1.4,5.36-.93,12.81,10.48,12.34l-.23,3.73s-1.97,2.47-5.68,4.53c4.81-2.14,7.38-5.35,7.38-5.35l.23-3.73c-11.41.47-11.88-6.99-10.48-12.34Z"/>
    <path class="st1" d="M588.84,114.1c-6.5,0-13.16,1.59-19.16,4.58,5.54-2.46,11.57-3.75,17.46-3.75,27.2,0,27.79,18.63,27.17,22.98-.46,3.24-2.22,7.49-5.07,9.45,3.85-1.19,6.22-6.44,6.77-10.28.62-4.35.03-22.98-27.17-22.98Z"/>
    <path class="st1" d="M603.28,152.45c-2.49,0-7.31-.72-9.98,1.21,2.7-.85,6.26-.38,8.28-.38,2.79,0,7.76,2.17,6.21,8.38-.81,3.26-4.94,6.98-10.4,9.79,6.29-2.87,11.2-7.03,12.1-10.62,1.55-6.21-3.42-8.38-6.21-8.38Z"/>
    <path class="st1" d="M570.83,141.27s1.36-11.21,8.45-15.46c-8.58,3.33-10.15,16.28-10.15,16.28h21.42s.31-.31.76-.83h-20.49Z"/>
    <path class="st1" d="M787.53,89.89l38.28.83v8.23l-33.07,40.14c10.52-10.92,34.77-40.97,34.77-40.97v-8.23h-39.97Z"/>
    <path class="st1" d="M751.99,90.71v8.23l-33.18,40.31c13.06-15.18,34.88-41.13,34.88-41.13v-8.23h-40.52l38.83.83Z"/>
    <path class="st1" d="M666.39,97.94h-10.01c-.28.28-.58.55-.87.83h9.19l-8.38,16.17h12.57v9.14h1.7v-9.96h-12.57l8.38-16.17Z"/>
    <path class="st1" d="M454.48,152.45c-2.49,0-7.31-.72-9.98,1.21,2.7-.85,6.26-.38,8.28-.38,2.79,0,7.76,2.17,6.21,8.38-.81,3.26-4.94,6.98-10.4,9.79,6.29-2.87,11.2-7.03,12.1-10.62,1.55-6.21-3.42-8.38-6.21-8.38Z"/>
    <path class="st1" d="M490.34,163.63l7.53-26.7c-.95.16-1.54.28-1.54.28l-7.68,27.25h14.44c1.74,0,3.52-.6,5.22-1.59-1.17.46-2.35.76-3.52.76h-14.44Z"/>
    <path class="st1" d="M440.04,114.1c-6.5,0-13.16,1.59-19.16,4.58,5.54-2.46,11.57-3.75,17.46-3.75,25.16,0,27.79,18.63,27.17,22.98-.46,3.24-2.22,7.49-5.07,9.45,3.85-1.19,6.22-6.44,6.77-10.28.62-4.35-2.01-22.98-27.17-22.98Z"/>
    <path class="st1" d="M422.03,141.27s1.36-11.21,8.45-15.46c-8.58,3.33-10.15,16.28-10.15,16.28h21.42s.31-.31.77-.83h-20.49Z"/>
    <path class="st1" d="M526.2,89.81h-35.86l-.23.83h34.39c13.27,0,24.22,4.89,21.19,17.93-3.03,13.04-4.19,13.97-16.07,20.49,8.15,3.03,12.34,11.33,7.68,27.17-1.73,5.88-5.81,9.87-10.82,12.57,5.77-2.69,10.59-6.87,12.51-13.4,4.66-15.83.47-24.14-7.68-27.17,11.88-6.52,13.04-7.45,16.07-20.49,3.03-13.04-7.92-17.93-21.19-17.93Z"/>
    <path class="st1" d="M500.59,124.27l6.74-22.62c-1-.03-1.43-.08-1.43-.08l-7.01,23.52h10.01c3.69,0,7.29-.28,10.23-2.02-2.59,1-5.53,1.19-8.53,1.19h-10.01Z"/>
    <path class="st1" d="M569.96,148.44h-1.44c-5.28,15.66,1.24,17.72,10.71,17.72,2.53,0,4.35-.58,5.72-1.46-1.11.39-2.42.64-4.03.64-9.29,0-15.72-2.02-10.97-16.89Z"/>
  </g>
  <path class="st0" d="M1063.12,180.77h-2.23v9.64h-5.06v-9.64h-2.23v9.64h-5.06v-9.64h-2.23v9.64h-5.06v-9.64h-2.23v9.64h-5.06v-9.64h-2.23v9.64h-5.06v-9.64h-2.23v9.64h-5.06v-9.64h-2.23v9.64h-5.06v-9.64h-2.23v9.64h-5.06v-9.64h-2.23v9.64h-5.06v-9.64h-2.23v9.64h-5.06v-9.64h-2.23v9.64h-5.06v-9.64h-2.23v9.64h-5.06v-9.64h-2.23v9.64h-5.06v-9.64h-2.23v9.64h-5.06v-9.64h-2.23v9.64h-5.06v-9.64h-2.23v9.64h-5.06v-9.64h-2.23v9.64h-5.06v-9.64h-2.23v9.64h-1.53l3.68,13.46h121.39l3.63-13.46h-1.12v-9.64ZM1069.06,106.38l6.87,20.18s-.57,9.73-26.48,17.18c-3.44-1.72-5.01-9.45-5.01-9.45l9.73-12.45-14.31-17.18-13.46,17.46,9.45,12.6-1,6.73s-4.01.72-9.3-2.58c-5.3-3.29-18.9-13.46-21.19-23.62l-.29-4.15,11.31-14.74-15.67-18.94-14.67,18.94s12.02,14.17,11.88,16.6c-.14,2.43-5.87,24.62-30.78,29.06,0,0-2.43-4.44-2.15-7.01,3.72-4.15,11.02-12.6,11.02-12.6l-14.74-17.61-13.6,17.75,10.31,12.17s-1.15,5.3-3.29,7.3c-7.16-1.38-24.48-5.3-29.2-14.89l6.44-21.76-22.19-13.03,23.37,85.46h135.53l23.04-85.46-21.61,14.03ZM1040.46,113.36c.55-.46,1.37-.38,1.82.17l6.66,8.05c.38.46.4,1.12.04,1.6l-5.9,7.84c-.25.34-.64.51-1.03.51-.27,0-.54-.08-.78-.26-.57-.43-.68-1.24-.25-1.81l5.29-7.02-6.01-7.27c-.46-.55-.38-1.36.17-1.82ZM1040.49,139.35c.66-.26,1.41.06,1.68.72l2.15,5.37c.26.66-.06,1.41-.72,1.68-.16.06-.32.09-.48.09-.51,0-1-.31-1.2-.81l-2.15-5.37c-.26-.66.06-1.41.72-1.68ZM1029.04,143.77c.65.29.95,1.05.66,1.7-.21.48-.69.77-1.18.77-.17,0-.35-.04-.52-.11-22.84-10.11-27.56-26.13-27.75-26.81-.19-.69.21-1.4.89-1.59.68-.2,1.4.2,1.59.89.04.16,4.66,15.56,26.32,25.15ZM1000.14,84.67c.56-.43,1.37-.33,1.81.23l8.48,10.95c.36.46.36,1.1.01,1.57l-8.16,10.84c-.25.34-.64.51-1.03.51-.27,0-.54-.08-.78-.26-.57-.43-.68-1.24-.25-1.81l7.57-10.05-7.88-10.17c-.44-.56-.33-1.37.23-1.81ZM960.7,113.36c.55-.46,1.37-.38,1.82.17l6.66,8.05c.38.46.4,1.12.04,1.6l-5.9,7.84c-.25.34-.64.51-1.03.51-.27,0-.54-.08-.78-.26-.57-.43-.68-1.24-.25-1.81l5.29-7.02-6.01-7.27c-.46-.55-.38-1.36.17-1.82ZM922.34,118.98c-.12,0-.23-.02-.35-.05-.69-.19-1.09-.9-.9-1.59l2.47-8.83-6.99-4.67c-.59-.4-.75-1.2-.36-1.79.39-.59,1.19-.75,1.79-.36l7.76,5.19c.46.31.68.88.53,1.42l-2.72,9.73c-.16.57-.68.94-1.24.94ZM924.58,136.03c-.47-.54-.4-1.36.14-1.82.54-.46,1.35-.4,1.82.13.1.11,6.11,6.73,23.12,10.32.7.15,1.15.83,1,1.53-.13.61-.66,1.03-1.26,1.03-.09,0-.18,0-.27-.03-18.04-3.8-24.29-10.86-24.55-11.16ZM1072.6,145.1l-8.45,29.34c-.16.55-.67.93-1.24.93h-114.8c-.71,0-1.29-.58-1.29-1.29s.58-1.29,1.29-1.29h113.83l8.18-28.41c.2-.68.91-1.08,1.6-.88.69.2,1.08.91.88,1.6Z"/>
</svg>